Coordinates
version=1
nRows=11
nColumns=32
inDegrees=yes

Units are S.I. units (second, meters, Newtons, ...)
If the header above contains a line with 'inDegrees', this indicates whether rotational values are in degrees (yes) or radians (no).

endheader
time	pelvis_tilt	pelvis_list	pelvis_rotation	pelvis_tx	pelvis_ty	pelvis_tz	hip_flexion_r	hip_adduction_r	hip_rotation_r	knee_angle_r	knee_adduction_r	med_cond_adduction_r	lat_cond_adduction_r	patella_r_constrained_knee_angle	ankle_angle_r	subtalar_angle_r	mtp_angle_r	hip_flexion_l	hip_adduction_l	hip_rotation_l	knee_angle_l	knee_adduction_l	med_cond_adduction_l	lat_cond_adduction_l	patella_l_constrained_knee_angle	ankle_angle_l	subtalar_angle_l	mtp_angle_l	lumbar_extension	lumbar_bending	lumbar_rotation
      0.45416667	      1.04736280	     -0.08361656	     88.14529725	      0.44412419	      1.09482677	     -1.46258565	    -29.73464306	     -9.42758100	    -39.96139800	    -33.21128899	     -0.00000000	      0.00000000	     -0.00000000	     -0.57964634	    -39.90473178	    -19.73632093	     -0.00000000	     13.39874079	     -1.01678636	    -13.36183983	     -7.52163507	     -0.00000000	     -0.00000000	     -0.00000000	     -0.13127730	      0.55598939	     19.61172083	     -0.00000000	      0.00000000	      0.00000000	      0.00000000
      0.45833333	      0.91886384	     -0.09426894	     88.60944327	      0.44320525	      1.09167351	     -1.47747888	    -29.78295685	     -9.64314235	    -39.96075864	    -34.37744298	     -0.00000000	      0.00000000	     -0.00000000	     -0.59999957	    -39.90261630	    -19.76930222	     -0.00000000	     13.15733913	     -0.66819831	    -12.89606608	     -7.70572761	     -0.00000000	      0.00000000	     -0.00000000	     -0.13449032	     -0.17558257	     19.57901352	      0.00000000	      0.00000000	      0.00000000	      0.00000000
      0.46250000	      0.70268994	     -0.09771920	     89.04186697	      0.44228199	      1.08845795	     -1.49242007	    -29.81683762	     -9.96362166	    -39.95998954	    -35.58643968	      0.00000000	      0.00000000	     -0.00000000	     -0.62110054	    -39.90012755	    -19.79481026	     -0.00000000	     12.89553315	     -0.24903259	    -12.57889621	     -8.02857165	      0.00000000	      0.00000000	     -0.00000000	     -0.14012501	     -1.19398554	     19.53387152	      0.00000000	      0.00000000	      0.00000000	      0.00000000
      0.46666667	      0.51686222	     -0.09877050	     89.46057705	      0.44139598	      1.08499806	     -1.50749603	    -29.84252311	    -10.26341325	    -39.95900210	    -36.81174496	     -0.00000000	      0.00000000	     -0.00000000	     -0.64248615	    -39.89723792	    -19.81524362	      0.00000000	     12.62485875	      0.11971067	    -12.36985397	     -8.46340654	      0.00000000	     -0.00000000	      0.00000000	     -0.14771431	     -2.50426201	     19.45775467	      0.00000000	      0.00000000	     -0.00000000	     -0.00000000
      0.47083333	      0.29251803	     -0.09053898	     89.85010197	      0.44055184	      1.08144775	     -1.52264280	    -29.86242782	    -10.61855604	    -39.95781168	    -38.06204145	     -0.00000000	      0.00000000	     -0.00000000	     -0.66430794	    -39.89371844	    -19.83190858	      0.00000000	     12.33086559	      0.50586889	    -12.32105667	     -8.94892497	      0.00000000	     -0.00000000	      0.00000000	     -0.15618821	     -4.13999854	     19.30152011	     -0.00000000	      0.00000000	     -0.00000000	     -0.00000000
      0.47500000	      0.07093920	     -0.05972167	     90.28186498	      0.43966677	      1.07786920	     -1.53759523	    -29.87742826	    -10.95184029	    -39.95662981	    -39.34581459	      0.00000000	     -0.00000000	      0.00000000	     -0.68671401	    -39.88963090	    -19.84505502	      0.00000000	     11.94409082	      0.92683162	    -11.81439681	     -9.43180313	      0.00000000	      0.00000000	     -0.00000000	     -0.16461602	     -4.74506152	     18.87767925	      0.00000000	      0.00000000	     -0.00000000	      0.00000000
      0.47916667	     -0.29267061	      0.01912386	     90.66326310	      0.43863497	      1.07446508	     -1.55222026	    -29.88873319	    -11.47199048	    -39.95554109	    -40.71410782	      0.00000000	     -0.00000000	      0.00000000	     -0.71059523	    -39.88526159	    -19.85469932	     -0.00000000	     11.39023941	      1.58686008	    -10.79270625	     -9.83461369	      0.00000000	     -0.00000000	      0.00000000	     -0.17164639	     -5.09657590	     17.91149985	     -0.00000000	      0.00000000	     -0.00000000	     -0.00000000
      0.48333333	     -0.80629295	      0.17264670	     91.06702874	      0.43716422	      1.07147140	     -1.56609358	    -29.89600991	    -12.18029931	    -39.95452645	    -42.20959616	      0.00000000	      0.00000000	     -0.00000000	     -0.73669643	    -39.87985005	    -19.86205366	     -0.00000000	     10.73040470	      2.57617328	     -9.31497953	    -10.33220667	     -0.00000000	      0.00000000	     -0.00000000	     -0.18033103	     -4.66637631	     16.36560573	      0.00000000	     -0.00000000	     -0.00000000	     -0.00000000
      0.48750000	     -1.51987973	      0.38011829	     91.40915849	      0.43576074	      1.06898617	     -1.57960336	    -29.90198268	    -13.10983894	    -39.95349978	    -43.76039504	     -0.00000000	      0.00000000	     -0.00000000	     -0.76376298	    -39.87374419	    -19.86732625	     -0.00000000	     10.03555944	      3.80662887	     -8.08007132	    -10.99080220	     -0.00000000	     -0.00000000	      0.00000000	     -0.19182569	     -3.44670977	     14.84221370	     -0.00000000	      0.00000000	     -0.00000000	     -0.00000000
      0.49166667	     -2.35496232	      0.63309651	     91.76952717	      0.43454319	      1.06705739	     -1.59272092	    -29.90683056	    -14.12069257	    -39.95215867	    -45.36635057	     -0.00000000	     -0.00000000	      0.00000000	     -0.79179219	    -39.86602536	    -19.87247449	     -0.00000000	      9.37314187	      5.04290541	     -7.32001743	    -11.68539722	     -0.00000000	      0.00000000	     -0.00000000	     -0.20394866	     -2.64294537	     13.86700904	      0.00000000	     -0.00000000	     -0.00000000	     -0.00000000
      0.49583333	     -3.12635698	      0.91347422	     92.24324165	      0.43351501	      1.06552521	     -1.60554436	    -29.91141810	    -14.95997184	    -39.95057490	    -46.93314839	      0.00000000	      0.00000000	     -0.00000000	     -0.81913797	    -39.85589288	    -19.87698907	      0.00000000	      8.77596002	      6.12817486	     -6.72391568	    -12.46044104	      0.00000000	      0.00000000	     -0.00000000	     -0.21747572	     -1.80041877	     12.59234840	      0.00000000	      0.00000000	     -0.00000000	      0.00000000
